<?xml version="1.0" encoding="UTF-8"?><svg id="Layer_2" xmlns="http://www.w3.org/2000/svg" viewBox="0 0 112.38 37.75"><g id="Layer_1-2"><path d="m21.25,4.45c.13-3.43,5.67-5.53,8.33-3.88,1.45.9,1.53,2.71,2.25,4.13.79,1.55,1.92,2.89,3.1,4.15,2.3,2.44,5,4.68,6.32,7.85.71,1.69,1.31,3.3,2.17,4.93.21.39.76,2.15,1.27,2.28.56.14,1.28-.75,1.73-1.01,1.68-.98,3.47-.75,4.29,1.18.95,2.25-.95,2.96-2.57,3.63-1.93.79-4.99,5.55-7.34,2.66-1.19-1.46-.14-4.08-1.6-5.59-.7-.73-.69-.14-1.1.83-.45,1.09-.99,2.18-1.35,3.31-.26.81-.44,1.66-.37,2.52.1,1.21.92,1.95,1.13,3.05.31,1.61-1.31,2.95-2.83,2.81-2.23-.21-3.31-3.08-3.68-4.95-.44-2.24.14-4.43,1.07-6.47.88-1.94,2.42-3.75,3.06-5.77.65-2.05-.89-3.14-1.95-4.66-2,2.03-3.65,3.9-5.15,6.34-.77,1.25-2.13,4.41-4.01,3.94-2.91-.74-.6-3.48.3-4.7,1.48-2,3.97-3.94,4.6-6.35-1.02.94-5.67,7.65-6.78,3.62-.36-1.31,1.3-2.39,2.14-3.15,1.19-1.08,3.62-2.5,4.2-3.99-1.88.16-3.54.5-5.13-.83-1.68-1.4-2.14-3.8-2.14-5.87Z"/><path d="m81.78,26.73c-.1-2.46.3-4.99,2.41-6.53,2.6-1.9,6.15-1.81,9.02-3.06-1.18.1-9.63,1.98-7.63-1.8.6-1.13,2.74-.9,3.79-.98,1.77-.14,3.91.03,5.48-.82-1.66-.82-3.63-.95-5.43-1.4-.64-.16-1.48-.2-1.73-.94-.25-.75.4-1.58,1.05-1.82,1.49-.56,4.2.46,5.74.71,1.64.27,3.97,1,5.48-.05,1.36-.95,1.15-2.43,1.44-3.86.32-1.57,1.2-2.88,2.45-3.86,2.31-1.82,5.72-2.92,7.58.06,1.98,3.17.73,6.89-2.38,8.71-1.49.87-2.69.64-4.31.7-1.72.06-2.42,1.22-3.52,2.41-2.45,2.65-4.8,4.86-6.44,8.16-1.4,2.83-3.78,7.74-2.41,10.82.48,1.09,1.87,2.62.95,3.79-1.18,1.51-3.15.54-4.03-.62-3.07-4.02-1.26-8.29-.3-12.66-3.19.22-2.6,3.05-3.47,5.25-.42,1.06-1.21,1.58-2.38,1.14-1.42-.53-1.51-2.06-1.36-3.36Z"/><path d="m56.52,30.99c.71-3.15,3.6-4.89,4.56-7.77.82-2.47-1.27-3.78-3.04-5-.99-.68-2.73-1.73-3.18-2.89-.35-.89.12-2.06,1.24-1.93.78.09,1.79,1.27,2.4,1.72,1.21.9,2.28,2.07,3.67,2.65-.11-1.88-2.23-4.22-3.26-5.79-.76-1.15-2.63-4.03.18-4.26,3.61-.29,2.67,8.9,5.94,8.18-1.24-2.46-1.85-5.12.21-7.35,2.11-2.27,5.69-1.7,6.3,1.59.43,2.32-.48,4.96-2.29,6.39-1.32,1.04-1.75,2.29-2.27,3.94-.33,1.06-1.39,3.63-.86,4.75.91,1.89,3.74-1.16,5.35-.46.79.34,1.62,1.57,1.56,2.48-.09,1.26-1.31,1.57-2.3,2.01-1.37.61-3.18,2.03-4.68,2.27-1.65.26-2.46-1.2-3.42-2.28-1.34,1.83-1.55,2.57-.98,4.74.34,1.31.42,2.57-1.1,3.03-3.31,1-3.79-3.89-4.06-6.02Z"/><path d="m0,31.42c.42-2.27,1.64-3.81,4.16-3.71,2.39.09,3.72,1.55,3.72,3.92,0,2.48-1.49,3.86-3.9,3.85-2.48,0-3.72-1.55-3.98-4.06Z"/></g></svg>