<?xml version="1.0" encoding="UTF-8"?><svg id="Layer_2" xmlns="http://www.w3.org/2000/svg" viewBox="0 0 400 400"><defs><style>.cls-1{fill:transparent;}</style></defs><g id="Layer_1-2"><path d="m200,400h-1c-.94-1.3-1.73-2.76-2.86-3.89-16.93-17-33.9-33.95-50.87-50.91-1.17-1.17-2.42-2.25-4.06-3.76H59.33v-81.8c-.88-1.04-1.27-1.59-1.74-2.06-18.25-18.27-36.49-36.54-54.77-54.78-.77-.77-1.87-1.21-2.82-1.81,0-.33,0-.67,0-1,1.02-.83,2.13-1.57,3.06-2.49,17.8-17.76,35.57-35.54,53.34-53.32.93-.93,1.78-1.96,3.05-3.37V59.45h81.38c1.41-1.27,2.44-2.11,3.37-3.04,17.79-17.77,35.56-35.54,53.32-53.34.92-.93,1.66-2.04,2.48-3.07,1,0,2,0,3,0,.94,1.3,1.72,2.76,2.84,3.89,17.27,17.33,34.57,34.62,51.88,51.91,1.17,1.17,2.42,2.25,4.03,3.73h81.84v81.76c.96,1.12,1.46,1.78,2.04,2.37,17.17,17.2,34.34,34.39,51.54,51.55.77.77,1.88,1.21,2.82,1.8v3c-1.02.83-2.13,1.58-3.06,2.51-16.75,16.72-33.48,33.45-50.21,50.19-1.05,1.05-2,2.2-3.03,3.34v42.6c0,7.17.04,14.33-.01,21.5-.06,7.08.26,14.18-.22,21.56h-85.45c-1.25,1.13-2.27,1.97-3.21,2.91-17.45,17.43-34.89,34.87-52.32,52.33-.93.93-1.66,2.04-2.49,3.06Zm56.23-255.13h-32.42c-7.87-7.84-15.51-15.44-23.5-23.39-8.03,7.95-15.7,15.54-23.37,23.14-10.72.26-21.3-.14-32.24.24v32.05c-7.83,7.87-15.41,15.49-23.24,23.35,8.11,8.18,15.71,15.84,23.54,23.74v31.19h31.18c7.93,7.85,15.58,15.42,23.55,23.32,8.05-7.97,15.72-15.56,23.44-23.2,5.63,0,11.12.07,16.6-.02,5.4-.09,10.85.44,16.46-.41v-32.61c7.39-7.5,14.71-14.92,22.25-22.58-7.71-7.77-14.95-15.08-22.26-22.45v-32.37Z"/><path class="cls-1" d="m200,0c-.82,1.03-1.56,2.14-2.48,3.07-17.76,17.79-35.54,35.57-53.32,53.34-.93.93-1.96,1.77-3.37,3.04H59.45v81.37c-1.27,1.41-2.11,2.44-3.05,3.37-17.77,17.78-35.55,35.56-53.34,53.32-.93.92-2.04,1.67-3.06,2.49C0,133.42,0,66.83,0,0,66.67,0,133.33,0,200,0Z"/><path class="cls-1" d="m0,201c.95.59,2.05,1.04,2.82,1.81,18.28,18.24,36.53,36.51,54.77,54.78.47.47.86,1.01,1.74,2.06v81.8h81.87c1.64,1.51,2.9,2.6,4.06,3.76,16.97,16.95,33.94,33.91,50.87,50.91,1.12,1.13,1.91,2.58,2.86,3.89H0C0,333.67,0,267.33,0,201Z"/><path class="cls-1" d="m200,400c.83-1.03,1.57-2.14,2.49-3.06,17.42-17.46,34.87-34.9,52.32-52.33.94-.94,1.96-1.78,3.21-2.91h85.45c.48-7.38.16-14.48.22-21.56.06-7.17.01-14.33.01-21.5v-42.6c1.03-1.15,1.98-2.29,3.03-3.34,16.72-16.74,33.46-33.48,50.21-50.19.93-.93,2.04-1.68,3.06-2.51v200h-200Z"/><path class="cls-1" d="m400,197c-.95-.59-2.05-1.03-2.82-1.8-17.2-17.16-34.37-34.35-51.54-51.55-.58-.58-1.09-1.25-2.04-2.37V59.53h-81.84c-1.61-1.48-2.86-2.56-4.03-3.73-17.31-17.29-34.62-34.58-51.88-51.91C204.72,2.76,203.94,1.3,203,0c65.58,0,131.17,0,197,0v197Z"/><path class="cls-1" d="m256.23,144.87v32.37c7.31,7.37,14.55,14.68,22.26,22.45-7.54,7.65-14.86,15.08-22.25,22.58v32.61c-5.61.84-11.06.31-16.46.41-5.49.09-10.98.02-16.6.02-7.72,7.64-15.39,15.23-23.44,23.2-7.97-7.89-15.62-15.47-23.55-23.32h-31.18v-31.19c-7.83-7.89-15.42-15.55-23.54-23.74,7.82-7.86,15.41-15.48,23.24-23.35v-32.05c10.93-.38,21.52.02,32.24-.24,7.68-7.6,15.34-15.19,23.37-23.14,7.99,7.96,15.63,15.56,23.5,23.39h32.42Z"/></g></svg>